<svg width="180" height="180" viewBox="0 0 180 180" fill="none" xmlns="http://www.w3.org/2000/svg">
<rect width="180" height="180" fill="#EEEEEE"/>
<path d="M146.865 103.838L137.13 64.3116C136.452 59.9609 132.234 52 120.935 52C120.186 52 119.468 52.2926 118.938 52.8134C118.408 53.3342 118.111 54.0405 118.111 54.7771C118.111 55.5136 118.408 56.2199 118.938 56.7407C119.468 57.2615 120.186 57.5541 120.935 57.5541C130.068 57.5541 131.424 64.4597 131.556 65.2188L140.519 101.691H136.584C136.176 98.5093 135.074 95.4521 133.351 92.7292C131.628 90.0064 129.326 87.6825 126.603 85.9172C125.751 86.2701 125.023 86.8622 124.51 87.6195C123.998 88.3768 123.724 89.2658 123.722 90.1753C123.733 90.3356 123.733 90.4964 123.722 90.6567C126.012 92.2007 127.891 94.2627 129.202 96.6693C130.513 99.0759 131.217 101.757 131.255 104.486C131.243 105.418 131.155 106.346 130.991 107.264C130.374 111.196 128.347 114.783 125.275 117.373C122.202 119.964 118.288 121.388 114.241 121.388C110.194 121.388 106.28 119.964 103.208 117.373C100.135 114.783 98.1076 111.196 97.4912 107.264C97.3271 106.346 97.2389 105.418 97.2275 104.486C97.257 101.918 97.8681 99.3882 99.0164 97.081C98.064 97.0152 97.1725 96.5963 96.5222 95.9089C95.872 95.2215 95.5116 94.3169 95.5139 93.3782C95.5171 93.042 95.3891 92.7173 95.1562 92.471C93.3342 95.2659 92.1816 98.4312 91.7855 101.728H88.283C87.6821 96.2826 85.0564 91.2474 80.9101 87.5891C76.7638 83.9309 71.3891 81.9076 65.818 81.9076C60.247 81.9076 54.8723 83.9309 50.7259 87.5891C46.5796 91.2474 43.9539 96.2826 43.3531 101.728H39.4551L48.4373 65.2188C48.5503 64.4597 49.9626 57.5541 59.0578 57.5541C59.8069 57.5541 60.5254 57.2615 61.0551 56.7407C61.5848 56.2199 61.8824 55.5136 61.8824 54.7771C61.8824 54.0405 61.5848 53.3342 61.0551 52.8134C60.5254 52.2926 59.8069 52 59.0578 52C47.7594 52 43.5414 59.9609 42.8635 64.3116L33.1092 103.838C32.9885 104.241 32.9675 104.666 33.0479 105.078C33.1283 105.489 33.3078 105.876 33.5714 106.206C33.8349 106.536 34.1749 106.799 34.563 106.973C34.951 107.148 35.3758 107.228 35.802 107.208H43.3342C43.4874 108.353 43.7266 109.486 44.0498 110.596C44.1687 110.393 44.2335 110.164 44.2381 109.929C44.2381 108.947 44.6349 108.006 45.3412 107.311C46.0475 106.617 47.0054 106.227 48.0042 106.227C48.31 106.231 48.6139 106.274 48.9081 106.356C48.8261 105.711 48.782 105.062 48.7763 104.412C48.7813 103.482 48.8632 102.553 49.0211 101.635C49.6244 97.6897 51.6477 94.088 54.7232 91.4848C57.7987 88.8817 61.7221 87.4499 65.7804 87.4499C69.8386 87.4499 73.7621 88.8817 76.8376 91.4848C79.9131 94.088 81.9364 97.6897 82.5396 101.635C82.6975 102.553 82.7794 103.482 82.7844 104.412C82.7548 108.823 80.9598 113.044 77.7879 116.162C74.616 119.281 70.3225 121.046 65.8369 121.075C62.1656 121.124 58.5773 120 55.6118 117.872C54.9323 118.452 54.0639 118.774 53.1638 118.779C52.7925 118.784 52.4381 118.932 52.1773 119.192C51.9165 119.452 51.7703 119.803 51.7704 120.168C51.7652 120.685 51.6498 121.196 51.4314 121.667C55.46 124.95 60.5292 126.744 65.7615 126.74C71.2886 126.763 76.6328 124.794 80.7829 121.205C84.9331 117.616 87.6014 112.656 88.283 107.264H91.7102C92.3304 112.692 94.9632 117.706 99.1056 121.347C103.248 124.987 108.609 127 114.166 127C119.722 127 125.083 124.987 129.226 121.347C133.368 117.706 136.001 112.692 136.621 107.264H144.154C144.589 107.294 145.025 107.219 145.424 107.045C145.823 106.87 146.172 106.602 146.44 106.263C146.708 105.925 146.887 105.526 146.961 105.103C147.036 104.68 147.002 104.246 146.865 103.838V103.838Z" fill="black"/>
</svg>
